<svg width="160" height="160" viewBox="0 0 160 160" fill="none" xmlns="http://www.w3.org/2000/svg">
<path d="M148.72 114.694C136.411 125.663 119.122 120.663 117.306 120.106C115.782 119.634 116.353 119.685 113.153 118.556C111.067 117.824 108.935 117.076 106.738 116.384C106.212 116.214 105.675 116.053 105.143 115.893C100.439 114.498 95.408 113.42 89.8607 113.335C85.161 113.264 80.4011 113.194 75.0745 115.657C73.3441 116.459 71.4281 117.583 62.8011 125.899C59.0343 129.53 56.8375 131.787 55.3378 133.347C54.8663 133.829 54.4701 134.245 54.114 134.611C52.7397 136.021 51.9673 136.728 50.3322 137.886C45.8331 141.051 40.5165 144.823 33.2287 144.648C29.8582 144.567 25.1936 143.629 21.4068 141.493C21.0105 141.272 20.6243 141.031 20.2532 140.79C18.2018 139.411 16.5115 137.636 15.6036 135.389C12.5942 127.93 19.8569 119.464 21.9685 111.374C22.1792 110.561 22.3397 109.753 22.43 108.956C22.6858 106.749 22.43 104.587 21.3466 102.491C20.9253 101.673 20.3685 100.846 19.8268 100.113C19.6563 99.8826 19.4908 99.662 19.3303 99.4513C19.2199 99.3059 19.1196 99.1704 19.0193 99.04C14.5754 93.2018 10.6883 91.8475 7.51836 88.6977C5.16601 86.3554 3.74157 83.5566 2.88389 81.0037C2.73843 80.5823 2.61304 80.1711 2.50269 79.7698C1.68012 76.8507 1.56476 74.4431 1.52965 73.7159C1.10332 64.7779 6.23938 56.452 12.4488 51.8726C18.2268 47.6143 25.314 46.3052 31.5535 46.3905C31.7641 46.3905 31.9798 46.3905 32.1905 46.4056C37.2814 46.551 41.7353 47.5992 44.3535 48.6876C44.9955 48.9585 46.3146 49.5554 48.2206 49.751C54.4149 50.393 59.4657 46.0494 61.166 44.63C65.5547 40.9736 92.5691 18.4582 117.226 15.1529C121.274 14.6112 127.333 13.8688 133.622 15.7748C134.044 15.9052 134.465 16.0457 134.886 16.1962C136.441 16.7579 138.006 17.4902 139.551 18.4381C148.434 23.8902 153.61 34.5635 153.083 42.699C152.592 50.2124 149.311 55.7447 149.311 55.7447C148.925 56.4018 148.569 56.9184 148.148 57.8714C147.446 59.4664 146.558 62.3052 147.125 66.6588C147.175 67.0701 147.24 67.5014 147.325 67.9478C147.37 68.1936 147.416 68.4444 147.471 68.7002C147.947 70.9171 148.554 72.4218 149.326 73.8914C149.457 74.1372 149.592 74.378 149.728 74.6288C150.741 76.4344 152 78.3604 153.56 81.6507C155.877 86.546 157.688 90.3629 158.004 94.5961C158.821 105.465 149.477 114.032 148.725 114.704L148.72 114.694Z" fill="#D1E0FF"/>
<path d="M32.1756 46.3956C30.7411 49.736 28.8903 52.9159 26.9542 55.9855C24.948 59.1454 22.6759 62.1548 20.2633 65.0188C17.8558 67.8877 15.2677 70.6062 12.5242 73.1542C9.77557 75.7122 6.87149 78.0996 3.83199 80.3065C3.516 80.5373 3.19501 80.768 2.86899 80.9937C2.72353 80.5724 2.59814 80.1611 2.48779 79.7598C3.10472 79.3235 3.71663 78.8771 4.32353 78.4257C7.26773 76.2188 10.0715 73.8313 12.7298 71.2884C15.4032 68.7304 17.931 66.0119 20.2884 63.158C22.6408 60.3091 24.8326 57.3147 26.8539 54.225C27.8671 52.6702 28.8452 51.0852 29.7831 49.4852C30.2496 48.6878 30.6959 47.8852 31.1474 47.0777C31.2778 46.842 31.4032 46.6112 31.5336 46.3755C31.7442 46.3755 31.9599 46.3755 32.1705 46.3905L32.1756 46.3956Z" fill="white"/>
<path d="M134.871 16.1859C124.754 20.3239 114.914 25.0938 105.464 30.606C95.8089 36.2336 86.56 42.5934 77.8829 49.6405C69.271 56.6323 61.1958 64.2662 53.7675 72.5019C49.4591 77.2769 45.3914 82.2725 41.3588 87.2781C40.5914 88.2311 39.824 89.184 39.0566 90.142C38.6403 90.6637 38.219 91.1853 37.7976 91.7069C34.8585 95.3633 31.9243 99.0248 28.9851 102.686C26.6478 105.585 24.2854 108.474 21.9531 111.378C22.1638 110.571 22.3243 109.763 22.4146 108.966C25.1882 105.505 27.9669 102.039 30.7456 98.5734C32.3205 96.6123 33.8854 94.6411 35.4503 92.675C35.8666 92.1533 36.2829 91.6317 36.6992 91.1151C42.7732 83.4863 48.9074 75.8975 55.5632 68.7753C63.2371 60.5746 71.5531 52.9709 80.4158 46.0693C89.2685 39.1778 98.6277 32.9583 108.438 27.5214C113.319 24.8179 118.309 22.3001 123.41 20.023C126.766 18.5283 130.156 17.0737 133.602 15.7646C134.023 15.8951 134.445 16.0355 134.866 16.1859H134.871Z" fill="white"/>
<path d="M147.315 67.9326C144.792 67.9025 142.264 67.9075 139.736 68.0028C134.525 68.1934 129.329 68.6147 124.153 69.2266C113.805 70.4404 103.558 72.4066 93.4167 74.7589C83.6312 77.026 73.9108 79.594 64.2857 82.468C55.3327 85.1464 46.46 88.1507 37.808 91.6968C37.487 91.8272 37.1659 91.9577 36.8399 92.0931C36.3785 92.2837 35.917 92.4743 35.4606 92.6649C31.3829 94.3852 27.3553 96.236 23.3929 98.2272C22.1942 98.8291 21.0054 99.4561 19.8217 100.108C19.6512 99.8774 19.4857 99.6567 19.3252 99.4461C24.9678 96.3564 30.776 93.5978 36.7095 91.105C37.492 90.774 38.2744 90.4479 39.0619 90.1319C39.2725 90.0467 39.4832 89.9614 39.6938 89.8761C48.7772 86.2147 58.0863 83.1301 67.4907 80.3915C77.3014 77.5276 87.2123 74.9395 97.1935 72.7276C107.36 70.4705 117.637 68.6498 128.01 67.6066C133.241 67.0799 138.493 66.7539 143.744 66.6737C144.862 66.6586 145.991 66.6436 147.12 66.6436C147.17 67.0548 147.235 67.4862 147.32 67.9326H147.315Z" fill="white"/>
<path d="M149.723 74.6135C146.789 79.9853 143.453 85.1364 139.621 89.9164C135.388 95.2079 130.528 99.9678 125.242 104.206C120.015 108.399 114.383 112.081 108.549 115.371C107.947 115.712 107.346 116.043 106.734 116.379C106.207 116.209 105.67 116.048 105.139 115.888C106.759 115.02 108.364 114.117 109.954 113.184C115.667 109.839 121.169 106.102 126.27 101.874C131.461 97.5703 136.176 92.7402 140.309 87.4085C142.445 84.6499 144.426 81.7709 146.287 78.8217C147.22 77.3521 148.118 75.8574 149.021 74.3678C149.121 74.2023 149.221 74.0317 149.322 73.8662C149.452 74.112 149.588 74.3527 149.723 74.6035V74.6135Z" fill="white"/>
<path d="M55.3328 133.347C54.8614 133.829 54.4651 134.245 54.109 134.611C49.8908 134.521 45.6626 134.691 41.4745 135.223C37.6877 135.705 33.936 136.517 30.3046 137.696C27.22 138.694 24.2407 139.958 21.3968 141.498C21.0005 141.277 20.6143 141.036 20.2432 140.795C20.4438 140.68 20.6444 140.57 20.8451 140.454C24.1103 138.649 27.5861 137.209 31.1573 136.121C34.9742 134.962 38.9015 134.21 42.8588 133.774C46.9968 133.307 51.1698 133.207 55.3278 133.347H55.3328Z" fill="white"/>
<path d="M48.8726 37.9139C48.0952 35.0198 52.7146 30.4857 57.64 30.0393C61.161 29.7183 65.5347 31.4236 65.961 33.9013C66.4877 36.9508 61.0457 41.134 55.8544 41.154C53.3115 41.1641 49.4745 40.1759 48.8676 37.9139H48.8726Z" fill="#D1E0FF"/>
<path d="M27.7417 44.7457C35.6163 44.0485 43.9925 43.5569 52.8251 43.3663C63.1975 43.1457 72.9731 43.3664 82.0665 43.888C82.563 43.9131 85.4119 44.1036 87.3831 46.4961C88.6621 48.046 88.9129 49.7263 88.9781 50.4285C89.3091 56.1814 89.4044 62.5263 89.0884 69.3727C88.8176 75.2761 88.2759 80.7732 87.5837 85.809C87.3781 86.5212 86.9668 87.5595 86.1091 88.5576C84.1179 90.8598 81.2941 91.0955 80.632 91.1306C70.0239 92.3293 57.8709 92.9362 44.484 92.2591C37.9938 91.9281 31.8646 91.3313 26.1367 90.5589C25.4947 90.4836 23.5988 90.1827 21.9436 88.6178C19.9925 86.7771 19.7317 84.4698 19.6815 83.893C19.1499 77.5833 18.9342 70.5363 19.3054 62.8924C19.501 58.8648 19.837 55.0379 20.2734 51.4316C20.3536 50.7996 20.7047 48.6429 22.5655 46.8623C24.6621 44.8611 27.175 44.7657 27.7467 44.7607L27.7417 44.7457Z" fill="white"/>
<path d="M19.9574 55.0278C29.8132 54.0648 40.6019 53.4379 52.2031 53.4078C65.6602 53.3676 78.064 54.13 89.2238 55.3137C89.1285 58.268 89.0332 61.2171 88.9379 64.1714C78.1743 63.4592 66.7937 63.0128 54.8464 62.9325C42.4527 62.8473 30.6558 63.1683 19.521 63.7802C19.6665 60.8661 19.8119 57.952 19.9574 55.0379V55.0278Z" fill="#D1E0FF"/>
<path d="M24.6272 65.1843C27.1953 65.1191 29.7633 64.9235 32.3313 64.8433C34.9043 64.763 37.4774 64.7429 40.0504 64.768C41.505 64.7831 42.9545 64.8232 44.409 64.8382C44.6849 64.8382 44.6799 64.432 44.409 64.4169C41.821 64.2665 39.2178 64.2865 36.6247 64.3367C34.0316 64.3868 31.4786 64.5072 28.9106 64.7078C27.4761 64.8182 26.0416 64.9235 24.6172 65.1392C24.5871 65.1392 24.5971 65.1893 24.6222 65.1893L24.6272 65.1843Z" fill="#101828"/>
<path d="M19.7669 52.8358C19.5061 54.3255 19.4659 55.8252 19.4158 57.3349C19.3656 58.8446 19.3857 60.3694 19.4358 61.8841C19.486 63.3988 19.5662 64.9587 19.6816 66.4885C19.797 68.0183 19.9123 69.4828 20.2032 70.9574C20.3688 71.8001 20.5042 72.6427 20.6346 73.4904C20.765 74.338 20.9556 75.1757 21.1111 76.0183C21.1211 76.0685 21.1913 76.0434 21.1813 75.9982C20.9606 74.4684 20.8051 72.9236 20.6948 71.3788C20.6446 70.6415 20.6396 69.9142 20.5694 69.1769C20.4992 68.4396 20.4239 67.6672 20.3637 66.9098C20.118 63.9255 20.0076 60.9311 19.9725 57.9418C19.9525 56.2415 19.9976 54.5361 19.8622 52.8408C19.8622 52.7957 19.7819 52.7756 19.7719 52.8308L19.7669 52.8358Z" fill="#101828"/>
<path d="M24.1753 57.8967C24.3909 57.9318 24.6167 57.9418 24.8323 57.9368H25.1383C25.1884 57.9368 25.2386 57.9368 25.2887 57.9368C25.3088 57.9368 25.3289 57.9368 25.3489 57.9368C25.359 57.9368 25.374 57.9368 25.384 57.9368C25.364 57.9368 25.364 57.9368 25.384 57.9368C25.4041 57.9368 25.4192 57.9468 25.4392 57.9518C25.4091 57.9368 25.4543 57.9618 25.4593 57.9668C25.4342 57.9267 25.4442 57.9568 25.4593 57.9668C25.4442 57.9518 25.4392 57.9317 25.4493 57.9668C25.4292 57.9217 25.4593 57.9869 25.4493 57.9668C25.4693 58.007 25.4392 57.9669 25.4493 57.9569C25.4493 57.9569 25.4442 58.0822 25.4493 58.002C25.4493 58.0321 25.4442 58.0572 25.4392 58.0873C25.4392 58.0622 25.4493 58.0522 25.4392 58.0823C25.4392 58.0873 25.4242 58.1324 25.4342 58.1073C25.4442 58.0822 25.4292 58.1173 25.4242 58.1224C25.4242 58.1274 25.3941 58.1625 25.4242 58.1324C25.4192 58.1374 25.369 58.1976 25.3991 58.1625C25.369 58.1976 25.3489 58.2227 25.3339 58.2678L25.3891 58.1976C25.3891 58.1976 25.374 58.2077 25.369 58.2127C25.2837 58.2628 25.3138 58.3731 25.3941 58.4082C25.4041 58.4082 25.4091 58.4133 25.4192 58.4183L25.369 58.3882C25.5295 58.5487 25.7652 58.3531 25.8455 58.2026C25.9408 58.0221 25.8956 57.7713 25.7452 57.6308C25.5445 57.4453 25.2486 57.4803 24.9978 57.4854C24.727 57.4854 24.4511 57.4904 24.1853 57.5405C24.0098 57.5706 24.0047 57.8715 24.1853 57.9016L24.1753 57.8967Z" fill="#101828"/>
<path d="M67.536 59.7122C67.4908 59.6871 67.4256 59.6419 67.3905 59.6018C67.3554 59.5617 67.3002 59.5417 67.2601 59.5868C67.24 59.6069 67.2099 59.6219 67.1899 59.647C67.1698 59.6721 67.1598 59.6921 67.1447 59.7222C67.1197 59.7723 67.0896 59.8275 67.0645 59.8777C67.0394 59.9279 67.0043 59.978 66.9742 60.0282C66.9441 60.0784 66.924 60.1335 66.8939 60.1887C66.8438 60.294 66.7936 60.4044 66.7485 60.5147C66.6933 60.6351 66.6632 60.7655 66.6331 60.8909C66.5729 61.1166 66.8839 61.247 67.0093 61.0514C67.0795 60.941 67.1447 60.8257 67.1949 60.7053C67.24 60.5899 67.2801 60.4695 67.3102 60.3542C67.3253 60.299 67.3454 60.2388 67.3554 60.1836C67.3704 60.1235 67.3704 60.0683 67.3805 60.0031C67.3905 59.9429 67.4055 59.8877 67.4156 59.8276C67.4206 59.7874 67.4306 59.7574 67.4206 59.7172C67.4206 59.7072 67.4005 59.6319 67.4055 59.657L67.3203 59.7423C67.3755 59.7473 67.4407 59.7824 67.4908 59.8075C67.546 59.8376 67.5911 59.7573 67.536 59.7272V59.7122Z" fill="#101828"/>
<path d="M29.7129 78.3407C30.6909 78.9626 32.0803 79.8504 33.9411 79.9257C35.5511 79.9909 36.2082 79.399 37.2213 79.9257C38.4853 80.5827 38.7762 82.1877 38.8063 82.3583C39.2226 84.8109 36.8552 86.7721 36.6897 86.9075C33.5047 89.4755 28.7348 87.5194 28.0176 87.2235C27.0044 86.8072 24.7474 85.8542 23.4684 83.4166C23.2276 82.9602 21.8132 80.2618 23.047 77.7038C23.1774 77.4379 24.2408 75.2912 25.7956 75.2711C27.1097 75.2561 27.2702 76.7858 29.7078 78.3407H29.7129Z" fill="#D1E0FF"/>
<path d="M41.665 84.0481C41.6901 82.7541 42.6531 81.5303 43.9923 81.2996C45.5121 81.0337 47.0017 82.1322 47.2726 83.6268C47.5685 85.267 46.3095 86.9322 44.6293 87.0124C42.9841 87.0927 41.6349 85.6231 41.67 84.0532L41.665 84.0481Z" fill="#D1E0FF"/>
<path d="M27.6162 44.545C35.4908 43.8478 43.867 43.3563 52.6996 43.1657C63.072 42.945 72.8476 43.1656 81.941 43.6873C82.4375 43.7123 85.2865 43.903 87.2576 46.2954C88.5366 47.8453 88.7874 49.5255 88.8526 50.2277C89.1836 55.9807 89.2789 62.3255 88.9629 69.1719C88.6921 75.0754 88.1504 80.5726 87.4582 85.6083C87.2526 86.3205 86.8413 87.3588 85.9836 88.3569C83.9924 90.6591 81.1686 90.8948 80.5065 90.9299C69.8984 92.1287 57.7454 92.7356 44.3586 92.0585C37.8683 91.7274 31.7391 91.1305 26.0112 90.3581C25.3692 90.2829 23.4733 89.982 21.8181 88.4171C19.867 86.5763 19.6062 84.2691 19.556 83.6923C19.0244 77.3826 18.8087 70.3355 19.1799 62.6917C19.3755 58.6641 19.7115 54.8371 20.1479 51.2309C20.2281 50.5989 20.5792 48.4421 22.4401 46.6616C24.5366 44.6603 27.0495 44.565 27.6213 44.56L27.6162 44.545Z" stroke="#101828" stroke-width="0.8" stroke-linecap="round" stroke-linejoin="round"/>
<path d="M19.9575 55.0278C29.4572 54.1802 39.6942 53.6335 50.5782 53.5482C64.3262 53.4429 77.086 54.0949 88.6973 55.1833" stroke="#101828" stroke-width="0.8" stroke-linecap="round" stroke-linejoin="round"/>
<path d="M19.1797 64.2112C29.4969 63.7548 40.1904 63.4839 51.2248 63.4388C64.2857 63.3836 76.87 63.6495 88.9427 64.1661" stroke="#101828" stroke-width="0.8" stroke-linecap="round" stroke-linejoin="round"/>
<path d="M118.801 36.394C118.776 36.3338 118.751 36.2736 118.721 36.2134C118.746 36.2485 118.766 36.2786 118.776 36.3137C118.786 36.3438 118.801 36.3639 118.801 36.394Z" fill="#D1E0FF"/>
<path d="M112.998 46.2148C108.609 48.1608 104.561 48.7878 103.538 47.7495C103.473 47.6492 103.408 47.5439 103.343 47.4436C103.343 47.4436 103.343 47.4402 103.343 47.4335C102.67 46.3953 101.998 45.3571 101.341 44.3138C101.296 44.2486 101.251 44.1733 101.206 44.1081C100.594 42.7288 104.025 39.8599 108.88 37.7032C113.615 35.6066 117.943 34.9545 118.721 36.2085C118.751 36.2686 118.776 36.3289 118.801 36.3891C119.333 37.5527 119.864 38.7113 120.386 39.8749C120.396 39.89 120.401 39.91 120.411 39.9201C121.023 41.3044 117.707 44.1232 113.003 46.2097L112.998 46.2148Z" fill="#528BFF"/>
<path d="M103.348 47.4438C103.348 47.4438 103.358 47.484 103.368 47.494C103.413 47.5893 103.468 47.6695 103.543 47.7448" fill="#D1E0FF"/>
<path d="M104.121 40.3414C104.04 40.4166 103.634 40.8028 103.669 41.3194C103.734 42.2323 105.119 42.6887 105.309 42.483C105.425 42.3577 105.079 42.0116 104.993 41.6354C104.818 40.868 105.655 39.6341 109.382 37.5376C107.627 38.4705 105.876 39.4085 104.121 40.3414Z" fill="white"/>
<path d="M102.059 45.8439C102.465 46.0345 103.062 46.2853 103.804 46.4809C104.862 46.7567 106.171 46.9122 108.75 46.5611C110.259 46.3554 112.301 45.9643 114.673 45.1567C111.217 46.5812 108.554 47.4288 106.869 47.9154C105.961 48.1762 104.772 48.4972 103.674 47.9154C102.696 47.3937 102.254 46.4056 102.059 45.8539V45.8439Z" fill="white"/>
<path d="M110.967 42.5358C115.82 40.3811 119.257 37.5116 118.642 36.1267C118.027 34.7418 113.594 35.366 108.741 37.5208C103.887 39.6756 100.451 42.545 101.066 43.9299C101.681 45.3148 106.114 44.6906 110.967 42.5358Z" stroke="#101828" stroke-width="0.8" stroke-linecap="round" stroke-linejoin="round"/>
<path d="M103.212 47.233C103.212 47.233 103.227 47.2731 103.238 47.2932C103.854 48.6775 108.168 48.1057 112.873 46.0141C117.577 43.9226 120.898 41.1088 120.281 39.7245C120.276 39.7094 120.266 39.6894 120.256 39.6743" stroke="#101828" stroke-width="0.8" stroke-linecap="round" stroke-linejoin="round"/>
<path d="M101.076 43.9126C101.853 45.1264 102.636 46.3352 103.413 47.549" stroke="#101828" stroke-width="0.8" stroke-linecap="round" stroke-linejoin="round"/>
<path d="M120.286 39.7244C119.724 38.4855 119.162 37.2467 118.601 36.0078" stroke="#101828" stroke-width="0.8" stroke-linecap="round" stroke-linejoin="round"/>
<path d="M45.0645 119.396C42.4313 121.337 38.9203 121.041 37.215 118.734C37.0696 118.533 36.9392 118.322 36.8288 118.107C36.6884 117.971 36.563 117.826 36.4426 117.67C34.8727 115.539 35.7454 112.223 38.3937 110.272C41.042 108.316 44.4627 108.457 46.0326 110.593C46.2081 110.834 46.3586 111.09 46.4689 111.361C46.5692 111.471 46.6595 111.586 46.7498 111.702C48.4501 114.009 47.6978 117.455 45.0595 119.396H45.0645Z" fill="#528BFF"/>
<path d="M36.8338 118.106C36.8038 118.061 36.7838 118.011 36.7588 117.961L36.8338 118.106Z" fill="#D1E0FF"/>
<path d="M46.474 111.355L46.459 111.34L46.474 111.355Z" fill="#D1E0FF"/>
<path d="M43.9884 117.754C46.6365 115.801 47.5087 112.489 45.9364 110.358C44.3642 108.227 40.9429 108.084 38.2948 110.038C35.6467 111.991 34.7746 115.303 36.3468 117.434C37.919 119.565 41.3403 119.708 43.9884 117.754Z" stroke="#101828" stroke-width="0.8" stroke-linecap="round" stroke-linejoin="round"/>
<path d="M46.3336 111.14C46.4389 111.255 46.5342 111.375 46.6295 111.501C48.3298 113.808 47.5775 117.254 44.9443 119.195C42.311 121.136 38.7951 120.84 37.0947 118.538C36.9142 118.292 36.7587 118.031 36.6333 117.76" stroke="#101828" stroke-width="0.8" stroke-linecap="round" stroke-linejoin="round"/>
<path d="M142.289 113.269C146.029 113.269 149.06 110.238 149.06 106.498C149.06 102.759 146.029 99.7271 142.289 99.7271C138.549 99.7271 135.518 102.759 135.518 106.498C135.518 110.238 138.549 113.269 142.289 113.269Z" fill="#528BFF"/>
<path d="M141.351 110.807C141.331 110.315 141.798 109.929 142.199 109.803C142.911 109.583 143.844 110.054 143.889 110.651C143.934 111.188 143.247 111.774 142.565 111.759C142.028 111.749 141.371 111.368 141.351 110.807Z" fill="white"/>
<path d="M145.068 109.859C144.461 109.849 144.03 109.137 143.985 109.066C143.398 108.063 144.221 107.286 144.115 105.56C144.01 103.875 143.127 103.118 143.518 102.722C143.895 102.34 145.033 102.737 145.74 103.303C147.155 104.442 147.029 106.423 147.009 106.689C146.894 108.133 146.021 109.874 145.068 109.864V109.859Z" fill="white"/>
<path d="M142.164 113.069C145.903 113.069 148.935 110.037 148.935 106.298C148.935 102.558 145.903 99.5264 142.164 99.5264C138.424 99.5264 135.393 102.558 135.393 106.298C135.393 110.037 138.424 113.069 142.164 113.069Z" stroke="#101828" stroke-width="0.8" stroke-linecap="round" stroke-linejoin="round"/>
<path d="M77.5677 99.5265C78.7314 100.535 79.9251 101.483 81.2242 102.31C82.5232 103.138 83.8975 103.91 85.2768 104.632C88.0053 106.062 90.8442 107.286 93.6931 108.454C95.3031 109.116 96.9583 109.718 98.6336 110.185C98.7239 110.21 98.789 110.074 98.6988 110.029C95.9652 108.605 93.0511 107.542 90.2373 106.283C87.4235 105.024 84.7151 103.69 82.0869 102.15C80.5872 101.272 79.0775 100.399 77.6229 99.4463C77.5778 99.4162 77.5226 99.4864 77.5627 99.5215L77.5677 99.5265Z" fill="#101828"/>
<path d="M78.5107 101.277C82.6988 103.062 85.8938 103.102 88.0957 102.771C90.3427 102.435 91.4311 101.723 93.327 102.27C95.4386 102.882 96.8932 104.577 98.5684 106.523C100.705 109.011 100.369 109.628 101.743 110.33C103.313 111.137 104.627 110.776 106.187 112.126C106.92 112.763 106.759 112.953 107.406 113.5C109.177 115 111.75 114.694 112.908 114.558C115.842 114.212 117.904 112.692 118.872 111.855C118.556 112.587 117.979 113.625 116.926 114.503C114.308 116.685 110.882 116.088 109.954 115.927C108.459 115.667 107.261 115.105 106.393 114.578C97.1038 110.139 87.8098 105.7 78.5208 101.267L78.5107 101.277Z" fill="#84ADFF"/>
<path d="M72.7575 53.5876C74.0064 52.5894 75.9625 51.3757 78.3098 51.471C80.4866 51.5612 81.5349 52.7198 83.8622 53.5324C85.5725 54.1293 88.2108 54.6208 91.9725 53.7982C89.4496 52.9054 87.5336 52.0026 86.2296 51.3305C85.091 50.7437 83.8521 50.0365 81.9412 49.575C81.0233 49.3493 80.2057 49.1587 79.1073 49.234C76.9807 49.3844 75.501 50.4277 74.9894 50.8189C73.7355 51.7869 73.0785 52.9205 72.7524 53.5876H72.7575Z" fill="#84ADFF"/>
<path d="M83.2152 50.2273C90.5281 53.2217 98.197 56.6324 106.132 60.5245C115.446 65.0938 124.028 69.7784 131.867 74.4129C132.294 74.6637 134.741 76.1433 135.393 79.1728C135.815 81.1389 135.268 82.7439 135.002 83.396C132.655 88.6574 129.826 94.3402 126.4 100.274C123.446 105.395 120.442 110.029 117.517 114.182C117.011 114.719 116.168 115.456 114.944 115.943C112.121 117.071 109.502 115.983 108.895 115.712C98.9193 111.905 87.8447 106.864 76.2685 100.113C70.656 96.838 65.4848 93.4925 60.75 90.1722C60.2133 89.811 58.6735 88.6725 57.9162 86.5207C57.0284 83.9878 57.856 81.8211 58.0767 81.2844C60.5043 75.4361 63.5488 69.0813 67.3858 62.4555C69.4071 58.9646 71.4635 55.7245 73.5099 52.7201C73.871 52.1935 75.1751 50.438 77.6428 49.7107C80.4215 48.8931 82.7036 49.9665 83.2152 50.2223V50.2273Z" fill="white"/>
<path d="M71.7693 54.9922C82.1216 59.411 93.3367 64.7978 105.088 71.3884C115.18 77.0461 124.288 82.8191 132.439 88.4467C131.055 90.9646 129.67 93.4825 128.291 96.0054C118.144 89.9866 107.411 83.9377 96.1003 77.9489C86.0689 72.6373 76.2633 67.732 66.7285 63.1928C68.4088 60.4593 70.094 57.7257 71.7743 54.9972L71.7693 54.9922Z" fill="#D1E0FF"/>
<path d="M72.9531 53.8636C72.6622 53.8987 72.5067 54.0241 72.281 54.2147C72.0553 54.4053 71.8246 54.6411 71.624 54.8768C71.2077 55.3633 70.8616 55.905 70.5456 56.4667C69.8685 57.6705 69.3118 58.9495 68.7299 60.1984C68.098 61.5677 67.471 62.942 66.8892 64.3363C66.3074 65.7307 65.7155 67.0899 65.2942 68.5144C65.0635 69.2968 64.8879 70.1144 64.7074 70.9069C64.5168 71.7495 64.3412 72.5971 64.1907 73.4498C64.1757 73.5351 64.2961 73.5702 64.3212 73.4849C64.7425 72.0705 65.2039 70.6461 65.8158 69.3019C66.4278 67.9577 66.8491 66.6034 67.3958 65.2642C68.4792 62.616 69.6177 59.9828 70.8365 57.3947C71.1375 56.7627 71.4635 56.1407 71.8547 55.5589C72.0453 55.278 72.2459 55.0072 72.4666 54.7564C72.6873 54.5056 72.9331 54.3251 73.0535 54.0091C73.0785 53.9439 73.0133 53.8536 72.9381 53.8586L72.9531 53.8636Z" fill="#101828"/>
<path d="M128.181 95.5588C127.774 95.7393 127.524 96.1958 127.273 96.5469C126.987 96.9481 126.696 97.3443 126.4 97.7305C126.104 98.1168 125.828 98.4929 125.542 98.8691C125.392 99.0647 125.251 99.2554 125.116 99.466C124.991 99.6616 124.84 99.8873 124.79 100.113C124.76 100.248 124.89 100.339 125.011 100.284C125.211 100.193 125.392 100.008 125.542 99.8471C125.708 99.6666 125.863 99.486 126.009 99.2904C126.315 98.8892 126.611 98.4829 126.892 98.0666C127.172 97.6503 127.428 97.249 127.689 96.8377C127.925 96.4666 128.246 96.0453 128.236 95.5838C128.236 95.5537 128.206 95.5387 128.181 95.5538V95.5588Z" fill="#101828"/>
<path d="M74.3123 59.6619L74.3374 59.6769L74.1969 59.5365C74.2973 59.6769 74.3926 59.7271 74.548 59.7773C74.6082 59.7974 74.6734 59.8224 74.7336 59.8375C74.8741 59.8726 75.0095 59.8976 75.1499 59.9277C75.4258 59.9879 75.7067 60.0581 75.9825 60.1233L75.6465 59.682C75.6465 59.682 75.6465 59.707 75.6465 59.7221C75.6465 59.6669 75.6565 59.6117 75.6866 59.5616C75.6615 59.6017 75.6766 59.5817 75.7267 59.5165C75.6916 59.5466 75.7117 59.5365 75.7769 59.4813C75.7518 59.4914 75.7267 59.5064 75.7016 59.5215C75.7769 59.4914 75.7969 59.4813 75.7518 59.4964C75.7368 59.4964 75.7217 59.5064 75.7117 59.5064C75.5913 59.5365 75.817 59.5064 75.7217 59.5064C75.6866 59.5064 75.6465 59.5064 75.6114 59.5064C75.5361 59.5064 75.4659 59.5014 75.3907 59.4914L75.5161 59.5064C75.3907 59.4914 75.2703 59.4613 75.1549 59.4161C75.0446 59.376 75.2352 59.4562 75.1549 59.4161C75.1299 59.4061 75.1048 59.3911 75.0797 59.381C75.0245 59.3509 74.9643 59.3208 74.9092 59.2907C74.6985 59.1954 74.4678 59.2155 74.3173 59.4111C74.1869 59.5816 74.1819 59.8625 74.3524 60.013C74.6734 60.2989 75.1549 60.4243 75.5763 60.4293C75.7919 60.4293 76.0026 60.3992 76.1932 60.2989C76.4139 60.1835 76.5944 59.9327 76.5694 59.6769C76.5493 59.4813 76.444 59.2857 76.2333 59.2356C75.9574 59.1704 75.6766 59.1102 75.4007 59.05C75.2603 59.0199 75.1198 58.9898 74.9844 58.9648C74.7938 58.9296 74.523 58.8895 74.3474 58.9998L74.543 58.9447H74.5129C74.3524 58.9647 74.1869 59.055 74.1518 59.2255C74.1167 59.386 74.1719 59.5716 74.3223 59.6519L74.3123 59.6619Z" fill="#101828"/>
<path d="M74.0113 55.4137C74.0113 55.4438 74.0113 55.4739 74.0214 55.504C74.0214 55.519 74.0314 55.529 74.0364 55.5441C74.0615 55.5993 74.0565 55.5892 74.0264 55.524C74.0464 55.6344 74.1468 55.7096 74.2471 55.7447C74.3474 55.7798 74.4627 55.7798 74.5681 55.7899C74.6734 55.7999 74.7687 55.8049 74.869 55.8049C75.0696 55.8099 75.2703 55.815 75.4659 55.825C75.5461 55.825 75.6264 55.7949 75.6866 55.7447C75.7417 55.6996 75.8069 55.6294 75.817 55.5541C75.817 55.5291 75.832 55.4789 75.832 55.4588C75.822 55.3635 75.8019 55.2683 75.7267 55.198C75.6565 55.1328 75.5662 55.0876 75.4659 55.0927C75.2552 55.0927 75.0395 55.0927 74.8289 55.0927C74.7236 55.0927 74.6232 55.0927 74.5179 55.1077C74.4728 55.1077 74.4226 55.1178 74.3775 55.1228C74.3624 55.1228 74.3474 55.1228 74.3323 55.1228C74.242 55.1228 74.1668 55.1629 74.1066 55.2181L74.242 55.1379H74.3624C74.1969 55.1027 74.0063 55.2181 74.0113 55.4036V55.4137Z" fill="#101828"/>
<path d="M92.3735 76.0278C96.7271 78.4103 99.1898 81.0335 100.644 83.0247C101.627 84.3689 102.024 85.2567 103.393 86.5508C104.326 87.4285 106.814 89.7808 110.445 90.3576C113.289 90.8091 114.513 89.8059 116.509 90.9946C117.151 91.3758 117.758 91.9175 118.906 92.1934C120.03 92.4642 121.038 92.3188 121.705 92.1583C116.965 89.4197 112.105 86.6761 107.13 83.9426C102.149 81.204 97.2287 78.5658 92.3735 76.0278Z" fill="#D1E0FF"/>
<path d="M83.0897 50.0266C90.4026 53.021 98.0715 56.4317 106.006 60.3238C115.32 64.8931 123.902 69.5777 131.742 74.2122C132.168 74.463 134.616 75.9426 135.268 78.9721C135.689 80.9382 135.142 82.5433 134.877 83.1953C132.529 88.4567 129.7 94.1395 126.275 100.073C123.32 105.194 120.316 109.829 117.392 113.982C116.885 114.518 116.043 115.255 114.819 115.742C111.995 116.871 109.377 115.782 108.77 115.511C98.7938 111.704 87.7192 106.664 76.143 99.9125C70.5305 96.6373 65.3593 93.2919 60.6245 89.9715C60.0878 89.6104 58.548 88.4718 57.7907 86.3201C56.9029 83.7871 57.7305 81.6204 57.9512 81.0837C60.3788 75.2354 63.4233 68.8806 67.2603 62.2549C69.2816 58.764 71.338 55.5238 73.3844 52.5194C73.7455 51.9928 75.0496 50.2373 77.5173 49.51C80.296 48.6925 82.5781 49.7658 83.0897 50.0216V50.0266Z" stroke="#101828" stroke-width="0.8" stroke-linecap="round" stroke-linejoin="round"/>
<path d="M71.7344 55.4585C80.5118 59.1851 89.8008 63.5187 99.446 68.5745C111.624 74.9544 122.573 81.54 132.304 87.9651" stroke="#101828" stroke-width="0.8" stroke-linecap="round" stroke-linejoin="round"/>
<path d="M66.7236 63.188C76.0428 67.6469 85.5976 72.4369 95.3581 77.598C106.904 83.7021 117.884 89.8614 128.286 96.0006" stroke="#101828" stroke-width="0.8" stroke-linecap="round" stroke-linejoin="round"/>
</svg>
