<svg width="88" height="88" viewBox="0 0 88 88" fill="none" xmlns="http://www.w3.org/2000/svg">
<path d="M86.2932 35.4266C85.427 39.3466 82.4421 42.6101 77.1456 48.406C76.3649 49.2584 76.4918 49.0818 76.1966 49.4239C76.1056 49.5315 76.0146 49.6363 75.9263 49.7439C75.5566 50.1963 75.2228 50.6487 74.9249 51.1094C74.9249 51.1149 74.9194 51.1177 74.9194 51.1177C69.929 58.7425 73.8077 67.5867 68.6766 73.9756C67.0656 75.9811 65.2614 76.8805 63.4601 77.7742C60.7401 79.126 58.238 79.5563 55.7911 79.4542C55.667 79.4487 55.5456 79.4432 55.4242 79.4349C47.4766 78.9301 40.0477 72.9687 27.5456 74.8887C22.3345 75.6887 19.8518 77.3053 14.8394 76.2598C13.689 76.0198 9.87937 75.228 6.76489 72.6432C6.63799 72.5384 6.51661 72.4335 6.39248 72.3204C5.18144 71.2391 4.10006 69.8708 3.35799 68.1356C3.0711 67.4653 1.67799 64.0308 2.74834 60.1163C3.92903 55.7963 7.18972 54.2625 9.76075 51.6722C10.3456 51.0818 10.8476 50.486 11.278 49.8846C11.3856 49.7356 11.4876 49.5867 11.587 49.4322C16.0614 42.577 11.6339 35.1177 17.0794 28.0363C24.9552 17.7963 44.0145 20.6432 48.7594 23.6556C48.8477 23.7108 48.9856 23.8018 49.198 23.9204C53.5952 26.4004 58.9277 23.8018 62.1056 22.6515C66.4283 21.0901 73.038 19.937 78.2187 21.1949C78.467 21.2556 78.7125 21.3218 78.9525 21.3908C80.6959 21.9094 82.2463 22.726 83.449 23.9204C83.5677 24.0391 83.6835 24.1632 83.7994 24.2873C83.9318 24.4363 84.0615 24.5935 84.1856 24.7535C86.5415 27.7798 86.9883 32.2901 86.2959 35.4211L86.2932 35.4266Z" fill="#D1E0FF"/>
<path d="M84.1831 24.759C83.0989 26.4197 81.9486 28.039 80.7403 29.6087C80.5444 29.8652 80.3458 30.1218 80.1417 30.3756C78.4313 32.5438 76.6051 34.6128 74.6713 36.5576C70.3431 40.9135 65.4217 44.6625 59.9955 47.4156C54.4948 50.2101 48.5196 51.9921 42.3982 52.3894C35.8548 52.8114 29.441 51.3328 22.9996 50.3866C19.1899 49.8266 15.1596 49.4404 11.2727 49.8873C11.3803 49.7383 11.4824 49.5894 11.5817 49.4349C12.6631 49.3135 13.7472 49.2556 14.8148 49.239C18.0368 49.1949 21.2534 49.5949 24.4341 50.0832C30.8782 51.0763 37.2893 52.3949 43.8327 51.7383C49.9762 51.1204 55.9762 49.0735 61.4106 46.0638C66.7458 43.1066 71.5375 39.1839 75.7279 34.6707C77.2644 33.0156 78.7265 31.2859 80.1113 29.4928C80.3044 29.2418 80.4975 28.9907 80.6851 28.7342C80.972 28.3507 81.2562 27.9701 81.5375 27.5838C82.321 26.5052 83.0658 25.4018 83.7941 24.2873C83.9265 24.4363 84.0562 24.5935 84.1803 24.7535L84.1831 24.759Z" fill="white"/>
<path d="M49.4517 59.0708C49.0848 59.2556 48.7206 59.4377 48.3482 59.6142C45.402 61.0349 42.3868 62.2791 39.3358 63.4349C36.2847 64.5908 33.2034 65.6529 30.0944 66.6267C26.9716 67.606 23.8213 68.4915 20.6489 69.2805C17.4765 70.0722 14.2792 70.7453 11.1041 71.5205C9.65302 71.8736 8.20751 72.2598 6.76475 72.6515C6.63785 72.5467 6.51647 72.4418 6.39233 72.3287C8.27371 71.7549 10.1827 71.2667 12.0916 70.8087C15.2558 70.0501 18.4337 69.3577 21.5841 68.5467C24.7482 67.7329 27.893 66.8253 31.013 65.8294C34.1303 64.8336 37.2199 63.7494 40.2792 62.5798C43.3358 61.4101 46.3592 60.1522 49.3937 58.9356C49.471 58.9053 49.5234 59.0377 49.4517 59.0736V59.0708Z" fill="white"/>
<path d="M80.765 31.3275C80.7071 34.0806 80.2491 36.8061 79.7112 39.4985C79.2064 42.0254 78.6657 44.5688 77.5678 46.9026C77.096 47.904 76.5416 48.8502 75.9264 49.7495C75.6091 50.2157 75.2726 50.6709 74.925 51.115C74.925 51.1206 74.9195 51.1233 74.9195 51.1233C73.2947 53.1951 71.3912 55.0489 69.5126 56.8475C67.9457 58.3537 66.3622 59.8433 64.8891 61.4488C63.2367 63.2502 61.7388 65.2061 60.434 67.2916C59.096 69.424 57.9154 71.6971 57.0381 74.075C56.5885 75.2944 56.216 76.5523 55.9926 77.835C55.8988 78.373 55.8326 78.9164 55.7912 79.4599C55.6671 79.4544 55.5457 79.4488 55.4243 79.4406C55.5291 77.0764 56.2409 74.762 57.1429 72.6075C58.1002 70.3261 59.2864 68.1385 60.6409 66.0889C61.9595 64.0944 63.4547 62.2323 65.0878 60.5081C66.5774 58.9357 68.1581 57.4654 69.7085 55.9647C72.7485 53.024 75.7829 49.8544 77.4243 45.8157C78.4202 43.3606 78.8864 40.6764 79.3691 38.075C79.8409 35.5371 80.1885 32.9606 80.1416 30.3757C80.1416 30.1937 80.136 30.0116 80.1278 29.8295C80.1222 29.7192 80.1195 29.6088 80.1112 29.4985C79.9595 26.6571 79.2974 23.8323 78.216 21.2006C78.4643 21.2613 78.7098 21.3275 78.9498 21.3964C79.8988 23.7275 80.4809 26.2157 80.685 28.7426C80.7098 29.0295 80.7291 29.3192 80.7402 29.6088C80.7705 30.1799 80.776 30.7564 80.765 31.3275Z" fill="white"/>
<path d="M71.4879 19.9286C71.9789 20.8913 72.4699 21.8569 72.961 22.8196C74.2244 23.0844 75.4879 23.3465 76.7513 23.6113C77.0823 23.3217 77.4768 22.9189 77.841 22.3838C78.4396 21.5065 78.7017 20.6569 78.823 20.0914C78.3155 19.0872 77.8051 18.0858 77.2975 17.0817C76.8203 16.9217 76.172 16.7589 75.3913 16.712C74.7596 16.6734 74.2134 16.7203 73.7775 16.7893C73.4161 17.0376 72.9472 17.4238 72.5003 17.9865C71.9182 18.7231 71.6313 19.4486 71.4851 19.9258L71.4879 19.9286Z" fill="#D1E0FF"/>
<path d="M76.7567 16.9216C76.7401 17.123 76.6849 17.3685 76.5056 17.5561C76.1387 17.9368 75.5622 17.7492 75.4822 17.9782C75.4105 18.1851 75.7884 18.6099 76.2187 18.6734C76.5829 18.7258 76.7401 18.483 77.0767 18.4692C77.3663 18.4582 77.7801 18.6182 78.3043 19.3961C77.9677 18.6237 77.6312 17.854 77.2974 17.0816C77.118 17.0265 76.936 16.9741 76.7567 16.9189V16.9216Z" fill="white"/>
<path d="M77.7887 20.5686C77.5845 20.301 77.0576 20.2431 76.9418 20.4058C76.8783 20.4969 76.9666 20.6293 77.0521 20.8555C77.3252 21.5948 77.0907 22.1217 77.2094 22.1576C77.3914 22.21 78.1694 21.0651 77.7887 20.5686Z" fill="white"/>
<path d="M72.8284 22.6818C72.9967 22.1136 73.2726 21.3936 73.7388 20.6267C74.0753 20.0694 74.434 19.617 74.7567 19.2639C75.3167 19.2832 75.9898 19.3494 76.7374 19.5177C77.565 19.7025 78.2629 19.9618 78.8091 20.2074C78.6629 20.7012 78.4505 21.2777 78.136 21.8984C77.7581 22.6432 77.3415 23.2418 76.9719 23.6998C76.274 23.6253 75.474 23.4901 74.6078 23.2639C73.9484 23.0901 73.3526 22.8887 72.8257 22.6818H72.8284Z" stroke="#101828" stroke-width="0.586667" stroke-linecap="round" stroke-linejoin="round"/>
<path d="M72.8287 22.6816C72.4093 21.7244 71.9928 20.7672 71.5735 19.8099C71.728 19.3327 72.0011 18.6734 72.5004 17.992C72.859 17.5009 73.2369 17.1313 73.5542 16.8637C74.0728 16.7534 74.8093 16.6541 75.6811 16.7368C76.3293 16.7975 76.8756 16.941 77.2949 17.0844C77.7997 18.1272 78.3045 19.1672 78.8093 20.2099" stroke="#101828" stroke-width="0.586667" stroke-linecap="round" stroke-linejoin="round"/>
<path d="M73.5571 16.8611C73.7282 17.2198 73.8964 17.5756 74.0675 17.9343" stroke="#101828" stroke-width="0.586667" stroke-linecap="round" stroke-linejoin="round"/>
<path d="M74.3267 18.4529C74.3736 18.5439 74.4232 18.6349 74.4701 18.726" stroke="#101828" stroke-width="0.586667" stroke-linecap="round" stroke-linejoin="round"/>
<path d="M27.2726 40.2485C31.6616 38.9713 36.1002 37.7078 40.583 36.4582C45.8464 34.9906 51.0657 33.5727 56.2354 32.2016C57.7995 31.4375 59.3637 30.6733 60.9278 29.9092C64.4478 29.8651 67.9678 29.8209 71.4878 29.7768C71.5457 29.9009 71.6036 30.0278 71.6616 30.152C71.3995 31.8982 71.0299 33.8016 70.5057 35.832C70.0837 37.4706 69.6092 38.9878 69.1209 40.3754C70.3733 43.0899 71.6257 45.8016 72.8781 48.5161C72.8588 48.8251 72.8423 49.134 72.823 49.443C72.2933 51.2775 71.5071 53.4485 70.3126 55.7713C69.4326 57.4871 68.4947 58.9602 67.6092 60.1961C67.485 60.3754 67.2699 60.6375 66.9305 60.872C66.5609 61.1285 66.2023 61.2333 65.9843 61.283C60.9416 64.2623 54.2299 67.592 45.9567 70.1464C39.2285 72.2237 33.1181 73.2747 28.0533 73.8016C26.8092 72.3258 25.5236 70.6816 24.2464 68.8637C22.5223 66.414 21.0933 64.0499 19.9071 61.8623C19.3085 61.9064 18.7099 61.9533 18.114 61.9975C18.0119 62.0389 17.4133 62.2651 16.9912 61.9616C16.7374 61.7795 16.6685 61.4954 16.5554 61.0071C16.4505 60.5492 16.4285 60.1244 16.445 59.752C15.8078 59.8044 15.0105 59.8154 14.1002 59.6968C13.1485 59.5754 12.3457 59.3465 11.7278 59.123C12.8671 58.1133 14.4809 56.4002 15.6285 53.8596C16.1416 52.723 16.4533 51.6609 16.6492 50.7478C20.045 47.3492 23.4436 43.9478 26.8395 40.5492C26.9857 40.4499 27.1292 40.3478 27.2754 40.2485H27.2726Z" fill="white"/>
<path d="M65.8274 45.2639C65.717 44.7149 66.4618 44.1273 67.0991 43.9535C67.7639 43.7742 68.677 43.9452 68.8453 44.4252C69.0329 44.9659 68.2632 45.8652 67.3915 45.9894C66.757 46.0804 65.9322 45.7797 65.8274 45.2611V45.2639Z" fill="#84ADFF"/>
<path d="M68.5911 46.428C68.547 46.2293 68.8808 45.9535 69.0629 46.028C69.2311 46.0969 69.3056 46.4721 69.1346 46.61C68.9691 46.7424 68.627 46.6045 68.5884 46.428H68.5911Z" fill="#84ADFF"/>
<path d="M68.2465 41.7907C65.8327 41.9701 64.0727 42.6652 63.0106 43.1921C61.0189 44.1797 60.6079 45.0045 60.4837 45.3025C60.3982 45.5038 60.0865 46.3011 60.5941 48.2128C61.5072 51.6638 63.7003 53.5204 62.9941 54.5963C62.9058 54.7314 62.7899 54.8225 62.6851 54.8859C61.8796 53.6611 61.2148 52.5687 60.6851 51.6666C59.7582 50.0914 59.1127 48.8611 58.663 48.0059C58.001 46.7452 57.4548 45.6363 57.0244 44.737C57.121 43.5839 57.2203 42.4308 57.3168 41.2776C58.1582 41.4211 59.0327 41.548 59.9403 41.6473C62.983 41.9838 65.7775 41.9783 68.2492 41.7935L68.2465 41.7907Z" fill="#84ADFF"/>
<path d="M47.027 59.5204C46.8836 59.1976 47.0987 58.8197 47.3718 58.6652C47.758 58.45 48.3374 58.6403 48.4449 59.01C48.547 59.3631 48.1967 59.7962 47.7911 59.8652C47.5291 59.9093 47.1594 59.8183 47.027 59.5204Z" fill="#84ADFF"/>
<path d="M49.8986 58.4113C49.9069 58.1796 50.3372 57.9782 50.6075 57.9009C50.7703 57.8541 50.9 57.8485 50.9165 57.8458C51.3689 57.8182 53.5124 57.3161 55.8213 55.8734C56.7731 55.2775 57.4241 54.7396 58.0806 54.974C58.3565 55.0733 58.5 55.2637 58.5 55.2637C58.751 55.6003 58.6434 56.0665 58.6103 56.2099C58.5579 56.4361 58.2765 57.2389 55.1179 58.3368C54.1027 58.6375 51.4489 59.3685 50.3896 58.8637C50.2572 58.8003 49.8903 58.6265 49.8986 58.4085V58.4113Z" fill="#84ADFF"/>
<path d="M24.6797 69.4238C25.0962 69.6059 25.7307 69.8266 26.5142 69.8845C27.9156 69.9866 28.9004 69.501 30.0424 69.0486C32.1087 68.2265 33.499 67.6721 35.1349 67.6307C37.3307 67.5727 39.1928 68.4583 40.0093 69.5948C40.2024 69.8652 40.5418 70.3534 40.4093 70.9052C40.2466 71.5783 39.4935 71.8734 39.3721 71.9203C37.9183 72.2624 36.3928 72.5797 34.7956 72.8666C32.4287 73.2886 30.1749 73.5921 28.0562 73.8017C27.5349 73.2638 26.9887 72.6514 26.4397 71.9617C25.7362 71.0762 25.1569 70.2155 24.6824 69.4293L24.6797 69.4238Z" fill="#84ADFF"/>
<path d="M16.517 55.9562C16.5087 57.7355 16.5252 59.4735 16.5639 61.1673C16.5694 61.25 16.5997 61.5231 16.8232 61.7549C17.1266 62.0693 17.5404 62.0362 17.5956 62.0307C22.037 61.7411 26.8508 61.2169 31.968 60.348C40.6715 58.8721 48.3349 56.7287 54.8287 54.4666C54.9694 54.3893 55.1708 54.2542 55.3556 54.0307C55.6342 53.6942 55.7253 53.3438 55.7584 53.1645C56.1032 51.5204 56.4122 49.7576 56.6659 47.8845C56.9722 45.6031 57.1542 43.4542 57.248 41.4624C57.2811 41.2169 57.1459 40.9935 56.9473 40.93C56.7404 40.8638 56.5584 40.9962 56.539 41.0128C50.6356 43.3549 43.6121 45.6776 35.5735 47.4873C28.848 48.999 22.6384 49.8735 17.1349 50.359C17.0908 50.3618 16.9253 50.3783 16.7846 50.5107C16.6273 50.6624 16.6163 50.8528 16.6135 50.8914C16.5611 52.5383 16.528 54.2293 16.517 55.9562Z" stroke="#101828" stroke-width="0.586667" stroke-linecap="round" stroke-linejoin="round"/>
<path d="M16.6462 50.748C16.2269 52.4556 15.3607 54.8859 13.4407 57.1839C12.9138 57.8156 12.3759 58.3563 11.8517 58.8197C11.7662 58.8832 11.7524 58.9356 11.7497 58.9659C11.7386 59.1039 11.9621 59.2694 12.3235 59.3521C12.7483 59.4735 13.2338 59.5811 13.7745 59.6528C14.8448 59.7935 15.7772 59.7383 16.5028 59.6363" stroke="#101828" stroke-width="0.586667" stroke-linecap="round" stroke-linejoin="round"/>
<path d="M16.9167 50.414C20.103 47.2416 23.2919 44.0719 26.4781 40.8995C26.5967 40.7754 26.7899 40.5933 27.0685 40.4361C27.3471 40.2761 27.5843 40.2126 27.6643 40.1905C28.183 40.0471 33.3085 38.585 40.3705 36.5712" stroke="#101828" stroke-width="0.586667" stroke-linecap="round" stroke-linejoin="round"/>
<path d="M56.2354 32.199C56.8781 31.8928 57.5264 31.5838 58.1719 31.2721C59.0409 30.8555 59.9043 30.4362 60.7622 30.0169" stroke="#101828" stroke-width="0.586667" stroke-linecap="round" stroke-linejoin="round"/>
<path d="M57.2338 41.2637C57.9924 41.3962 58.7787 41.5148 59.5897 41.6113C62.7428 41.9893 65.6531 41.9948 68.2324 41.8017C68.2628 41.7906 68.2987 41.7768 68.3318 41.7603C68.478 41.6858 68.5662 41.5782 68.6187 41.501C69.2835 40.0803 69.9593 38.3699 70.5193 36.392C71.1814 34.0472 71.5069 31.923 71.6587 30.152C71.6476 30.0996 71.6173 30.003 71.5373 29.9093C71.4104 29.763 71.2476 29.7272 71.1952 29.7189C67.9235 29.7106 64.649 29.6996 61.3773 29.6913C61.3276 29.6886 61.1925 29.6858 61.0628 29.7741C60.9938 29.8182 60.9524 29.8734 60.9276 29.9093C60.8504 30.3313 60.7373 30.9327 60.5856 31.6555C60.2021 33.4872 59.8849 35.0044 59.3745 36.4417C58.9773 37.5617 58.2931 39.1175 57.0518 40.861" stroke="#101828" stroke-width="0.586667" stroke-linecap="round" stroke-linejoin="round"/>
<path d="M20.4065 62.4664C21.4961 64.4112 22.721 66.4471 24.0948 68.5409C25.2451 70.2926 26.3982 71.9312 27.532 73.454C27.5817 73.523 27.703 73.6747 27.9155 73.7574C28.0396 73.8071 28.1499 73.8154 28.2244 73.8154C33.5679 73.2306 40.1941 72.0471 47.5348 69.6305C55.1872 67.1119 61.4382 63.9726 66.1913 61.1561" stroke="#101828" stroke-width="0.586667" stroke-linecap="round" stroke-linejoin="round"/>
<path d="M57.1018 44.6818C58.2715 47.3163 59.6949 50.1687 61.4301 53.1563C62.9308 55.7384 64.4563 58.0639 65.9404 60.1384C65.9873 60.1963 66.2494 60.508 66.7046 60.5466C67.2287 60.5935 67.5735 60.2377 67.6149 60.1908C68.4784 58.9742 69.3804 57.5453 70.2328 55.8984C71.4825 53.4873 72.3101 51.228 72.8673 49.3108C72.8894 49.2004 72.9115 49.0156 72.8646 48.7977C72.8342 48.657 72.7818 48.5439 72.7377 48.4639C72.0535 46.8915 71.3473 45.3053 70.6163 43.7025C70.1253 42.6266 69.6342 41.5646 69.1404 40.5163" stroke="#101828" stroke-width="0.586667" stroke-linecap="round" stroke-linejoin="round"/>
<path d="M59.3994 45.8928C59.827 47.0679 60.3622 48.3452 61.0353 49.6831C61.4463 50.5024 61.8739 51.2721 62.3042 51.9866" stroke="#101828" stroke-width="0.586667" stroke-linecap="round" stroke-linejoin="round"/>
<path d="M63.6587 54.0748C63.849 54.3479 64.0394 54.6128 64.227 54.8666" stroke="#101828" stroke-width="0.586667" stroke-linecap="round" stroke-linejoin="round"/>
<path d="M41.808 39.6471C40.9087 36.9326 40.0121 34.2182 39.1128 31.5037C40.0149 30.5989 41.5404 29.2885 43.7473 28.3037C44.9859 27.7492 46.2604 27.1809 47.9293 27.214C50.6769 27.2664 52.6631 28.9051 53.4549 29.6471C54.2659 31.8209 55.0769 33.9975 55.888 36.1713C55.9073 36.254 55.9266 36.3947 55.8935 36.5602C55.8714 36.6706 55.8328 36.7589 55.7997 36.8223C54.7928 37.7906 53.5018 38.8775 51.8935 39.9064C50.7625 40.6292 49.6838 41.1947 48.71 41.6389C47.3914 41.5285 45.7528 41.2499 43.968 40.5989C43.1652 40.3064 42.4452 39.9809 41.8107 39.6499L41.808 39.6471Z" fill="white"/>
<path d="M45.8823 33.9728C46.8175 33.0762 48.1389 32.0307 49.8934 31.2031C50.503 30.9162 51.0878 30.69 51.6368 30.5135C51.8685 30.6487 52.3844 30.908 53.0658 30.8804C53.4134 30.8666 53.6975 30.7811 53.8989 30.7038C54.4865 32.3314 55.0713 33.959 55.6589 35.5866C55.5347 35.89 55.3113 36.3038 54.8947 36.6211C54.3816 37.0156 53.9761 36.9632 53.6672 37.33C53.4768 37.5563 53.3085 37.9618 53.452 38.7507C52.732 39.2859 51.9403 39.8321 51.0713 40.3756C50.354 40.8252 49.6561 41.2252 48.9885 41.5838C48.5196 40.8887 48.0258 40.028 47.5982 38.9935C47.372 38.4445 47.1927 37.9231 47.0547 37.4376C47.4796 37.1121 47.5789 36.8335 47.5844 36.6349C47.6037 35.9866 46.6713 35.6887 46.6934 34.9521C46.7044 34.5714 46.9637 34.3921 46.8478 34.1797C46.7182 33.9397 46.2603 33.9369 45.8851 33.9728H45.8823Z" fill="#D1E0FF"/>
<path d="M43.6671 39.5038C43.325 39.1341 43.2478 38.4417 43.6671 38.0307C44.0754 37.6307 44.7264 37.7189 45.1126 38.0307C45.4906 38.3369 45.6754 38.9024 45.4685 39.3134C45.1733 39.89 44.1554 40.0252 43.6671 39.5038Z" fill="#D1E0FF"/>
<path d="M45.3582 37.4568C45.3141 37.2968 45.5872 36.9437 45.8769 37.021C46.1141 37.0844 46.2327 37.4017 46.15 37.5396C46.0286 37.7437 45.4162 37.6582 45.3582 37.4568Z" fill="#D1E0FF"/>
<path d="M40.5857 35.8486C40.3457 34.9769 40.2602 34.2321 40.2299 33.6941C40.1719 32.6431 40.2823 32.3203 40.503 32.1383C40.7209 31.959 41.0078 31.9452 41.2147 31.9617C40.9554 31.5369 40.9747 31.2638 41.0216 31.101C41.2009 30.5024 42.0864 30.519 42.8754 29.8017C43.3223 29.3934 43.5513 28.9217 43.6671 28.621C44.0037 28.4665 44.3402 28.3121 44.6768 28.1576C45.1237 28.1962 45.6616 28.2045 46.2575 28.13C47.4933 27.9783 48.4506 27.5479 49.0657 27.2031C48.5747 27.0927 48.0837 26.9852 47.5926 26.8748C46.2133 27.2031 44.354 27.8128 42.3844 29.0017C41.1319 29.7576 40.1306 30.5686 39.3582 31.2941C39.3775 31.9507 39.4657 32.8086 39.7388 33.7769C39.9788 34.6238 40.2961 35.319 40.5857 35.8486Z" fill="#D1E0FF"/>
<path d="M46.5278 33.3741C47.4851 32.6431 48.6575 31.8541 50.0451 31.1093C51.1982 30.4914 52.2878 30.0224 53.2671 29.6583C53.2809 29.65 53.3609 29.6114 53.4547 29.6445C53.5623 29.6831 53.5954 29.7879 53.6009 29.799C54.012 30.8307 54.4147 31.9286 54.8009 33.09C55.1458 34.13 55.452 35.1397 55.7196 36.1079" stroke="#101828" stroke-width="0.586667" stroke-linecap="round" stroke-linejoin="round"/>
<path d="M55.4464 37.0266C54.6409 37.7934 53.6671 38.6238 52.5195 39.4459C51.2588 40.3479 50.0533 41.0431 48.9857 41.5838C48.9554 41.5976 48.9113 41.6142 48.8616 41.6252C48.8009 41.639 48.7485 41.639 48.7099 41.6362C47.5237 41.5617 46.0009 41.3383 44.3182 40.7562C43.3499 40.4224 42.5113 40.0307 41.8078 39.6472C41.6285 39.2197 41.4492 38.781 41.2754 38.3369C40.3761 36.039 39.6837 33.8072 39.1513 31.6831C39.1375 31.6555 39.074 31.5093 39.1402 31.3493C39.1788 31.2528 39.2451 31.1976 39.2782 31.1755C40.2464 30.5493 41.5044 29.7521 43.0188 28.8473C43.0188 28.8473 44.9802 27.6859 47.2726 27.0735C47.3582 27.0514 47.4823 27.0266 47.634 27.0266C47.6561 27.0266 47.7885 27.0265 47.9402 27.0597C49.6616 27.4403 50.9554 28.0555 50.9554 28.0555C51.314 28.2266 51.6892 28.4169 52.0726 28.6321C52.503 28.8721 52.9002 29.1121 53.2644 29.3521C53.3361 29.399 53.4354 29.479 53.5099 29.6114C53.5375 29.6583 53.554 29.7024 53.5651 29.7273" stroke="#101828" stroke-width="0.586667" stroke-linecap="round" stroke-linejoin="round"/>
<path d="M39.3528 31.4239C40.1473 31.6253 40.9942 31.8763 41.8797 32.1908C43.4107 32.7342 44.7459 33.3577 45.8797 33.9729C46.1224 34.8529 46.4204 35.7908 46.79 36.7729C47.4024 38.4032 48.0949 39.8266 48.7707 41.046" stroke="#101828" stroke-width="0.586667" stroke-linecap="round" stroke-linejoin="round"/>
<path d="M31.2258 31.8458C32.1776 31.6665 33.1624 31.4569 34.1748 31.2113C35.7251 30.8389 37.1872 30.4251 38.5555 29.9893" stroke="#101828" stroke-width="0.586667" stroke-linecap="round" stroke-linejoin="round"/>
</svg>
