<svg width="16" height="16" viewBox="0 0 16 16" fill="none" xmlns="http://www.w3.org/2000/svg">
<mask id="mask0_1353_9289" style="mask-type:alpha" maskUnits="userSpaceOnUse" x="0" y="0" width="16" height="16">
<rect width="16" height="16" fill="#D9D9D9"/>
</mask>
<g mask="url(#mask0_1353_9289)">
<path d="M3.94998 11.2501C4.54998 10.8279 5.19164 10.514 5.87498 10.3084C6.55831 10.1029 7.26664 10.0001 7.99997 10.0001C8.73331 10.0001 9.44164 10.1029 10.125 10.3084C10.8083 10.514 11.45 10.8279 12.05 11.2501C12.4389 10.7945 12.7278 10.289 12.9166 9.73343C13.1055 9.17787 13.2 8.6001 13.2 8.0001C13.2 6.55932 12.6931 5.33243 11.6795 4.31943C10.6658 3.30654 9.43803 2.8001 7.99614 2.8001C6.55425 2.8001 5.32775 3.30654 4.31664 4.31943C3.30553 5.33243 2.79998 6.55932 2.79998 8.0001C2.79998 8.6001 2.89442 9.17787 3.08331 9.73343C3.2722 10.289 3.56109 10.7945 3.94998 11.2501ZM7.99997 9.2001C7.33331 9.2001 6.76664 8.96676 6.29997 8.5001C5.83331 8.03343 5.59998 7.46676 5.59998 6.8001C5.59998 6.13343 5.83331 5.56676 6.29997 5.1001C6.76664 4.63343 7.33331 4.4001 7.99997 4.4001C8.66664 4.4001 9.23331 4.63343 9.69997 5.1001C10.1666 5.56676 10.4 6.13343 10.4 6.8001C10.4 7.46676 10.1666 8.03343 9.69997 8.5001C9.23331 8.96676 8.66664 9.2001 7.99997 9.2001ZM8.00464 14.4001C7.12375 14.4001 6.29442 14.2334 5.51664 13.9001C4.73886 13.5668 4.05831 13.1084 3.47498 12.5251C2.89164 11.9418 2.43331 11.2614 2.09998 10.4841C1.76664 9.70676 1.59998 8.87621 1.59998 7.99243C1.59998 7.10865 1.76664 6.28065 2.09998 5.50843C2.43331 4.73621 2.89164 4.05843 3.47498 3.4751C4.05831 2.89176 4.73864 2.43343 5.51597 2.1001C6.29331 1.76676 7.12386 1.6001 8.00764 1.6001C8.89142 1.6001 9.71942 1.76676 10.4916 2.1001C11.2639 2.43343 11.9416 2.89176 12.525 3.4751C13.1083 4.05843 13.5666 4.73743 13.9 5.5121C14.2333 6.28687 14.4 7.11465 14.4 7.99543C14.4 8.87632 14.2333 9.70565 13.9 10.4834C13.5666 11.2612 13.1083 11.9418 12.525 12.5251C11.9416 13.1084 11.2626 13.5668 10.488 13.9001C9.7132 14.2334 8.88542 14.4001 8.00464 14.4001ZM7.99997 13.2001C8.57775 13.2001 9.13331 13.1084 9.66664 12.9251C10.2 12.7418 10.7 12.4723 11.1666 12.1168C10.6889 11.8168 10.1833 11.589 9.64997 11.4334C9.11664 11.2779 8.56664 11.2001 7.99997 11.2001C7.43331 11.2001 6.88053 11.2751 6.34164 11.4251C5.80275 11.5751 5.29998 11.8057 4.83331 12.1168C5.29998 12.4723 5.79998 12.7418 6.33331 12.9251C6.86664 13.1084 7.4222 13.2001 7.99997 13.2001ZM7.99997 8.0001C8.33331 8.0001 8.61664 7.88343 8.84997 7.6501C9.08331 7.41676 9.19997 7.13343 9.19997 6.8001C9.19997 6.46676 9.08331 6.18343 8.84997 5.9501C8.61664 5.71676 8.33331 5.6001 7.99997 5.6001C7.66664 5.6001 7.38331 5.71676 7.14997 5.9501C6.91664 6.18343 6.79997 6.46676 6.79997 6.8001C6.79997 7.13343 6.91664 7.41676 7.14997 7.6501C7.38331 7.88343 7.66664 8.0001 7.99997 8.0001Z" fill="#101828"/>
</g>
</svg>
