<svg width="16" height="16" viewBox="0 0 16 16" fill="none" xmlns="http://www.w3.org/2000/svg">
<path fill-rule="evenodd" clip-rule="evenodd" d="M3.44105 2.66669L12.5591 2.66669C12.9105 2.66668 13.2137 2.66667 13.4634 2.68707C13.727 2.7086 13.9891 2.75615 14.2414 2.88468C14.6177 3.07642 14.9237 3.38238 15.1154 3.75871C15.244 4.01096 15.2915 4.27311 15.313 4.53667C15.3334 4.78638 15.3334 5.08955 15.3334 5.44098V10.5591C15.3334 10.9105 15.3334 11.2137 15.313 11.4634C15.2915 11.7269 15.244 11.9891 15.1154 12.2413C14.9237 12.6177 14.6177 12.9236 14.2414 13.1154C13.9891 13.2439 13.727 13.2914 13.4634 13.313C13.2137 13.3334 12.9106 13.3334 12.5591 13.3334L3.44107 13.3334C3.08963 13.3334 2.78645 13.3334 2.53673 13.313C2.27317 13.2914 2.01102 13.2439 1.75877 13.1154C1.38244 12.9236 1.07648 12.6177 0.884736 12.2413C0.756207 11.9891 0.708663 11.7269 0.687129 11.4634C0.666726 11.2137 0.666737 10.9105 0.666749 10.559L0.666749 5.44099C0.666737 5.08956 0.666727 4.78638 0.687129 4.53667C0.708663 4.27311 0.756207 4.01096 0.884736 3.75871C1.07648 3.38238 1.38244 3.07642 1.75877 2.88468C2.01102 2.75615 2.27317 2.7086 2.53673 2.68707C2.78644 2.66667 3.08962 2.66668 3.44105 2.66669ZM2.64531 4.01597C2.4642 4.03077 2.39705 4.05589 2.36409 4.07268C2.23865 4.1366 2.13666 4.23859 2.07275 4.36403C2.05595 4.39699 2.03083 4.46414 2.01603 4.64525C2.0006 4.83414 2.00008 5.08232 2.00008 5.46669V10.5334C2.00008 10.9177 2.0006 11.1659 2.01603 11.3548C2.03083 11.5359 2.05595 11.6031 2.07274 11.636C2.13666 11.7615 2.23865 11.8634 2.36409 11.9274C2.39705 11.9442 2.4642 11.9693 2.64531 11.9841C2.8342 11.9995 3.08238 12 3.46675 12L12.5334 12C12.9178 12 13.166 11.9995 13.3549 11.9841C13.536 11.9693 13.6031 11.9442 13.6361 11.9274C13.7615 11.8634 13.8635 11.7615 13.9274 11.636C13.9442 11.6031 13.9693 11.5359 13.9841 11.3548C13.9996 11.1659 14.0001 10.9177 14.0001 10.5334V5.46669C14.0001 5.08232 13.9996 4.83414 13.9841 4.64525C13.9693 4.46414 13.9442 4.39699 13.9274 4.36403C13.8635 4.23859 13.7615 4.1366 13.6361 4.07268C13.6031 4.05589 13.536 4.03077 13.3549 4.01597C13.166 4.00054 12.9178 4.00002 12.5334 4.00002L3.46675 4.00002C3.08238 4.00002 2.8342 4.00054 2.64531 4.01597ZM8.00008 4.66669C8.36827 4.66669 8.66675 4.96516 8.66675 5.33335H9.33342C9.70161 5.33335 10.0001 5.63183 10.0001 6.00002C10.0001 6.36821 9.70161 6.66669 9.33342 6.66669H7.66675C7.48265 6.66669 7.33342 6.81593 7.33342 7.00002C7.33342 7.18412 7.48265 7.33335 7.66675 7.33335H8.33342C9.25389 7.33335 10.0001 8.07955 10.0001 9.00002C10.0001 9.80634 9.4275 10.4789 8.66675 10.6333V10.6667C8.66675 11.0349 8.36827 11.3334 8.00008 11.3334C7.63189 11.3334 7.33342 11.0349 7.33342 10.6667H6.66675C6.29856 10.6667 6.00008 10.3682 6.00008 10C6.00008 9.63183 6.29856 9.33335 6.66675 9.33335H8.33342C8.51751 9.33335 8.66675 9.18412 8.66675 9.00002C8.66675 8.81593 8.51751 8.66669 8.33342 8.66669H7.66675C6.74627 8.66669 6.00008 7.9205 6.00008 7.00002C6.00008 6.1937 6.57267 5.52112 7.33342 5.36669V5.33335C7.33342 4.96516 7.63189 4.66669 8.00008 4.66669ZM3.00008 8.00002C3.00008 7.44774 3.4478 7.00002 4.00008 7.00002C4.55237 7.00002 5.00008 7.44774 5.00008 8.00002C5.00008 8.55231 4.55237 9.00002 4.00008 9.00002C3.4478 9.00002 3.00008 8.55231 3.00008 8.00002ZM11.0001 8.00002C11.0001 7.44774 11.4478 7.00002 12.0001 7.00002C12.5524 7.00002 13.0001 7.44774 13.0001 8.00002C13.0001 8.55231 12.5524 9.00002 12.0001 9.00002C11.4478 9.00002 11.0001 8.55231 11.0001 8.00002Z" fill="#101828"/>
</svg>
