<svg width="16" height="16" viewBox="0 0 16 16" fill="none" xmlns="http://www.w3.org/2000/svg">
<mask id="mask0_1353_9724" style="mask-type:alpha" maskUnits="userSpaceOnUse" x="0" y="0" width="16" height="16">
<rect width="16" height="16" fill="#D9D9D9"/>
</mask>
<g mask="url(#mask0_1353_9724)">
<path d="M3.59999 14.4001C3.26999 14.4001 2.98749 14.2807 2.75249 14.0418C2.51749 13.8029 2.39999 13.5223 2.39999 13.2001V4.4001C2.39999 4.07788 2.51749 3.79732 2.75249 3.55843C2.98749 3.31954 3.26999 3.2001 3.59999 3.2001H4.79999V1.6001H5.99999V3.2001H9.99999V1.6001H11.2V3.2001H12.4C12.73 3.2001 13.0125 3.31954 13.2475 3.55843C13.4825 3.79732 13.6 4.07788 13.6 4.4001V13.2001C13.6 13.5223 13.4825 13.8029 13.2475 14.0418C13.0125 14.2807 12.73 14.4001 12.4 14.4001H3.59999ZM3.59999 13.2001H12.4V7.2001H3.59999V13.2001ZM3.59999 6.0001H12.4V4.4001H3.59999V6.0001Z" fill="#101828"/>
</g>
</svg>
