<svg width="20" height="20" viewBox="0 0 20 20" fill="none" xmlns="http://www.w3.org/2000/svg">
<mask id="mask0_1049_9142" style="mask-type:alpha" maskUnits="userSpaceOnUse" x="0" y="0" width="20" height="20">
<rect width="20" height="20" fill="#D9D9D9"/>
</mask>
<g mask="url(#mask0_1049_9142)">
<path d="M18 5.5V14.5C18 14.9028 17.8531 15.2535 17.5594 15.5521C17.2656 15.8507 16.9125 16 16.5 16H3.5C3.09722 16 2.74653 15.8507 2.44792 15.5521C2.14931 15.2535 2 14.9028 2 14.5V5.5C2 5.09722 2.14931 4.74653 2.44792 4.44792C2.74653 4.14931 3.09722 4 3.5 4H16.5C16.9125 4 17.2656 4.14931 17.5594 4.44792C17.8531 4.74653 18 5.09722 18 5.5ZM3.5 7H16.5V5.5H3.5V7ZM3.5 10V14.5H16.5V10H3.5Z" fill="#101828"/>
</g>
</svg>
