<svg width="14" height="14" viewBox="0 0 14 14" fill="none" xmlns="http://www.w3.org/2000/svg">
<path fill-rule="evenodd" clip-rule="evenodd" d="M1.1665 3.50002C1.1665 3.17785 1.42767 2.91669 1.74984 2.91669H12.2498C12.572 2.91669 12.8332 3.17785 12.8332 3.50002C12.8332 3.82219 12.572 4.08335 12.2498 4.08335H1.74984C1.42767 4.08335 1.1665 3.82219 1.1665 3.50002ZM2.9165 7.00002C2.9165 6.67785 3.17767 6.41669 3.49984 6.41669H10.4998C10.822 6.41669 11.0832 6.67785 11.0832 7.00002C11.0832 7.32219 10.822 7.58335 10.4998 7.58335H3.49984C3.17767 7.58335 2.9165 7.32219 2.9165 7.00002ZM4.6665 10.5C4.6665 10.1779 4.92767 9.91669 5.24984 9.91669H8.74984C9.072 9.91669 9.33317 10.1779 9.33317 10.5C9.33317 10.8222 9.072 11.0834 8.74984 11.0834H5.24984C4.92767 11.0834 4.6665 10.8222 4.6665 10.5Z" fill="#475467"/>
</svg>
