<svg width="16" height="16" viewBox="0 0 16 16" fill="none" xmlns="http://www.w3.org/2000/svg">
<path d="M13.3333 1.33331H2.66659C1.99992 1.33331 1.33325 1.93331 1.33325 2.66665V4.67331C1.33325 5.15331 1.61992 5.56665 1.99992 5.79998V13.3333C1.99992 14.0666 2.73325 14.6666 3.33325 14.6666H12.6666C13.2666 14.6666 13.9999 14.0666 13.9999 13.3333V5.79998C14.3799 5.56665 14.6666 5.15331 14.6666 4.67331V2.66665C14.6666 1.93331 13.9999 1.33331 13.3333 1.33331ZM12.6666 13.3333H3.33325V5.99998H12.6666V13.3333ZM13.3333 4.66665H2.66659V2.66665H13.3333V4.66665Z" fill="#101828"/>
<path d="M9.99992 7.99998H5.99992V9.33331H9.99992V7.99998Z" fill="#101828"/>
</svg>
