<svg width="16" height="16" viewBox="0 0 16 16" fill="none" xmlns="http://www.w3.org/2000/svg">
<mask id="mask0_1413_34807" style="mask-type:alpha" maskUnits="userSpaceOnUse" x="0" y="0" width="16" height="16">
<rect width="16" height="16" fill="#D9D9D9"/>
</mask>
<g mask="url(#mask0_1413_34807)">
<path d="M4.3999 12.8002L4.8999 10.8002H2.3999L2.6999 9.6002H5.1999L5.8999 6.8002H3.1999L3.4999 5.6002H6.1999L6.7999 3.2002H7.9999L7.3999 5.6002H9.7999L10.3999 3.2002H11.5999L10.9999 5.6002H13.5999L13.2999 6.8002H10.6999L9.9999 9.6002H12.7999L12.4999 10.8002H9.6999L9.1999 12.8002H7.9999L8.4999 10.8002H6.0999L5.5999 12.8002H4.3999ZM6.3999 9.6002H8.7999L9.4999 6.8002H7.0999L6.3999 9.6002Z" fill="#101828"/>
</g>
</svg>
