<svg width="16" height="16" viewBox="0 0 16 16" fill="none" xmlns="http://www.w3.org/2000/svg">
<path d="M7.99992 1.33331C4.31992 1.33331 1.33325 4.31998 1.33325 7.99998C1.33325 11.68 4.31992 14.6666 7.99992 14.6666C11.6799 14.6666 14.6666 11.68 14.6666 7.99998C14.6666 4.31998 11.6799 1.33331 7.99992 1.33331ZM7.99992 13.3333C5.05992 13.3333 2.66659 10.94 2.66659 7.99998C2.66659 5.05998 5.05992 2.66665 7.99992 2.66665C10.9399 2.66665 13.3333 5.05998 13.3333 7.99998C13.3333 10.94 10.9399 13.3333 7.99992 13.3333ZM8.59325 7.39998C7.40659 7.00665 6.83325 6.75998 6.83325 6.13331C6.83325 5.45331 7.57325 5.20665 8.03992 5.20665C8.91325 5.20665 9.23325 5.86665 9.30658 6.09998L10.3599 5.65331C10.2599 5.35998 9.81325 4.37998 8.58659 4.16665V3.33331H7.41992V4.17331C5.68658 4.54665 5.67325 6.07331 5.67325 6.14665C5.67325 7.65998 7.17325 8.08665 7.90658 8.35331C8.95992 8.72665 9.42659 9.06665 9.42659 9.70665C9.42659 10.46 8.72658 10.78 8.10658 10.78C6.89325 10.78 6.54659 9.53331 6.50659 9.38665L5.39992 9.83331C5.81992 11.2933 6.91992 11.6866 7.41325 11.8066V12.6666H8.57992V11.84C8.92658 11.78 10.5933 11.4466 10.5933 9.69331C10.5999 8.76665 10.1933 7.95331 8.59325 7.39998Z" fill="#101828"/>
</svg>
