<svg width="16" height="16" viewBox="0 0 16 16" fill="none" xmlns="http://www.w3.org/2000/svg">
<mask id="mask0_1413_34817" style="mask-type:alpha" maskUnits="userSpaceOnUse" x="0" y="0" width="16" height="16">
<rect width="16" height="16" fill="#D9D9D9"/>
</mask>
<g mask="url(#mask0_1413_34817)">
<path d="M14.0501 9.34961L9.36677 14.0496C9.24454 14.1718 9.11121 14.2607 8.96676 14.3163C8.82232 14.3718 8.67232 14.3996 8.51677 14.3996C8.36121 14.3996 8.21121 14.3718 8.06676 14.3163C7.92232 14.2607 7.78899 14.1718 7.66676 14.0496L1.9451 8.32794C1.82621 8.20905 1.73899 8.078 1.68343 7.93478C1.62788 7.79155 1.6001 7.64094 1.6001 7.48294V2.79961C1.6001 2.46961 1.7176 2.18711 1.9526 1.95211C2.1876 1.71711 2.4701 1.59961 2.8001 1.59961H7.48343C7.63799 1.59961 7.78776 1.62739 7.93276 1.68294C8.07765 1.7385 8.20971 1.82572 8.32893 1.94461L14.0501 7.66628C14.1723 7.7885 14.2612 7.91905 14.3168 8.05794C14.3723 8.19683 14.4001 8.34405 14.4001 8.49961C14.4001 8.65517 14.3722 8.80567 14.3164 8.95111C14.2607 9.09644 14.1719 9.22928 14.0501 9.34961ZM8.51677 13.1996L13.2001 8.51628L7.48343 2.79961H2.8001V7.48294L8.51677 13.1996ZM4.4001 5.39961C4.67788 5.39961 4.91399 5.30239 5.10843 5.10794C5.30288 4.9135 5.4001 4.67739 5.4001 4.39961C5.4001 4.12183 5.30288 3.88572 5.10843 3.69128C4.91399 3.49683 4.67788 3.39961 4.4001 3.39961C4.12232 3.39961 3.88621 3.49683 3.69176 3.69128C3.49732 3.88572 3.4001 4.12183 3.4001 4.39961C3.4001 4.67739 3.49732 4.9135 3.69176 5.10794C3.88621 5.30239 4.12232 5.39961 4.4001 5.39961Z" fill="#101828"/>
</g>
</svg>
