<svg width="14" height="14" viewBox="0 0 14 14" fill="none" xmlns="http://www.w3.org/2000/svg">
<path fill-rule="evenodd" clip-rule="evenodd" d="M8.16669 1.75008C8.16669 1.42792 8.42786 1.16675 8.75002 1.16675H12.25C12.5722 1.16675 12.8334 1.42791 12.8334 1.75008L12.8334 5.25008C12.8334 5.57225 12.5722 5.83341 12.25 5.83342C11.9279 5.83342 11.6667 5.57225 11.6667 5.25008L11.6667 3.15837L7.99583 6.82923C7.76803 7.05703 7.39868 7.05703 7.17088 6.82923C6.94307 6.60142 6.94307 6.23208 7.17088 6.00427L10.8417 2.33341H8.75002C8.42786 2.33341 8.16669 2.07225 8.16669 1.75008ZM4.52593 2.33341L5.83335 2.33341C6.15552 2.33341 6.41669 2.59458 6.41669 2.91675C6.41669 3.23891 6.15552 3.50008 5.83335 3.50008H4.55002C4.05035 3.50008 3.71068 3.50054 3.44813 3.52199C3.19238 3.54288 3.0616 3.58076 2.97037 3.62724C2.75084 3.73909 2.57237 3.91757 2.46051 4.13709C2.41403 4.22833 2.37615 4.35911 2.35526 4.61485C2.33381 4.87741 2.33335 5.21708 2.33335 5.71675V9.45008C2.33335 9.94975 2.33381 10.2894 2.35526 10.552C2.37615 10.8077 2.41403 10.9385 2.46051 11.0297C2.57237 11.2493 2.75084 11.4277 2.97037 11.5396C3.0616 11.5861 3.19238 11.6239 3.44813 11.6448C3.71068 11.6663 4.05035 11.6667 4.55002 11.6667H8.28335C8.78303 11.6667 9.1227 11.6663 9.38525 11.6448C9.64099 11.6239 9.77178 11.5861 9.86301 11.5396C10.0825 11.4277 10.261 11.2493 10.3729 11.0297C10.4193 10.9385 10.4572 10.8077 10.4781 10.552C10.4996 10.2894 10.5 9.94975 10.5 9.45008V8.16675C10.5 7.84458 10.7612 7.58342 11.0834 7.58342C11.4055 7.58342 11.6667 7.84458 11.6667 8.16675V9.47419C11.6667 9.94375 11.6667 10.3313 11.6409 10.647C11.6141 10.9749 11.5566 11.2763 11.4124 11.5594C11.1887 11.9984 10.8317 12.3554 10.3927 12.5791C10.1096 12.7234 9.80814 12.7808 9.48025 12.8076C9.16456 12.8334 8.77702 12.8334 8.30746 12.8334H4.52592C4.05636 12.8334 3.66882 12.8334 3.35312 12.8076C3.02523 12.7808 2.72382 12.7234 2.44071 12.5791C2.00167 12.3554 1.64471 11.9984 1.42101 11.5594C1.27675 11.2763 1.21926 10.9749 1.19247 10.647C1.16667 10.3313 1.16668 9.94374 1.16669 9.47417V5.69266C1.16668 5.22309 1.16667 4.83555 1.19247 4.51985C1.21926 4.19196 1.27675 3.89055 1.42101 3.60744C1.64471 3.16839 2.00166 2.81144 2.44071 2.58773C2.72382 2.44348 3.02523 2.38598 3.35312 2.35919C3.66882 2.3334 4.05636 2.33341 4.52593 2.33341Z" fill="#344054"/>
</svg>
