<svg width="24" height="24" viewBox="0 0 24 24" fill="none" xmlns="http://www.w3.org/2000/svg">
<path fill-rule="evenodd" clip-rule="evenodd" d="M12 5C11.4477 5 11 5.44772 11 6C11 6.55228 11.4477 7 12 7C12.5523 7 13 6.55228 13 6C13 5.44772 12.5523 5 12 5ZM9 6C9 4.34315 10.3431 3 12 3C13.6569 3 15 4.34315 15 6C15 7.65685 13.6569 9 12 9C10.3431 9 9 7.65685 9 6ZM14.8827 15.5792C15.7559 15.3883 16.038 14.527 15.9951 13.9806L15.9942 13.9698L15.7957 11.9942L15.7938 11.9795C15.589 10.4096 14.3868 9 12.7054 9H12H11.2554C9.57605 9 8.3598 10.4108 8.2027 12.0101C8.20266 12.0105 8.20261 12.011 8.20257 12.0115L8.00578 13.9698L8.00493 13.9806C7.96187 14.5287 8.24587 15.3936 9.12529 15.5809L9.13779 15.5837C9.19626 15.5963 9.25617 15.6093 9.31727 15.6224L9.51204 19.4163L9.51218 19.419C9.55391 20.1915 10.1406 21 11.0986 21H12.9014C13.8594 21 14.4461 20.1915 14.4878 19.419L14.488 19.4163L14.6826 15.6241C14.7512 15.6092 14.8181 15.5941 14.8827 15.5792ZM2 5L5.2 5C5.75229 5 6.2 5.44772 6.2 6C6.2 6.55228 5.75229 7 5.2 7H4.41421L6.70711 9.29289C7.09763 9.68342 7.09763 10.3166 6.70711 10.7071C6.31658 11.0976 5.68342 11.0976 5.29289 10.7071L3 8.41421V9.2C3 9.75228 2.55229 10.2 2 10.2C1.44772 10.2 1 9.75228 1 9.2L1 6C1 5.44772 1.44772 5 2 5ZM17.8 6C17.8 5.44772 18.2477 5 18.8 5H22C22.5523 5 23 5.44772 23 6V9.2C23 9.75228 22.5523 10.2 22 10.2C21.4477 10.2 21 9.75228 21 9.2V8.41421L18.7071 10.7071C18.3166 11.0976 17.6834 11.0976 17.2929 10.7071C16.9024 10.3166 16.9024 9.68342 17.2929 9.29289L19.5858 7H18.8C18.2477 7 17.8 6.55228 17.8 6ZM11.2554 11C10.8188 11 10.2717 11.4025 10.1931 12.2062L10.1928 12.2088L10.04 13.7294C10.1697 13.7548 10.2948 13.777 10.4187 13.7949L11.2321 13.9125L11.4933 19H12.5067L12.7679 13.9125L13.5813 13.7949C13.7037 13.7772 13.8316 13.7552 13.9601 13.7306L13.8088 12.225C13.6959 11.4001 13.1381 11 12.7054 11H11.2554ZM6.70711 13.2929C7.09763 13.6834 7.09763 14.3166 6.70711 14.7071L4.41421 17H5.2C5.75229 17 6.2 17.4477 6.2 18C6.2 18.5523 5.75229 19 5.2 19H2C1.73478 19 1.48043 18.8946 1.29289 18.7071C1.10536 18.5196 1 18.2652 1 18L1 14.8C1 14.2477 1.44772 13.8 2 13.8C2.55229 13.8 3 14.2477 3 14.8V15.5858L5.29289 13.2929C5.68342 12.9024 6.31658 12.9024 6.70711 13.2929ZM17.2929 13.2929C17.6834 12.9024 18.3166 12.9024 18.7071 13.2929L21 15.5858V14.8C21 14.2477 21.4477 13.8 22 13.8C22.5523 13.8 23 14.2477 23 14.8V18C23 18.5523 22.5523 19 22 19H18.8C18.2477 19 17.8 18.5523 17.8 18C17.8 17.4477 18.2477 17 18.8 17H19.5858L17.2929 14.7071C16.9024 14.3166 16.9024 13.6834 17.2929 13.2929Z" fill="#D0D5DD"/>
</svg>
