<svg width="24" height="24" viewBox="0 0 24 24" fill="none" xmlns="http://www.w3.org/2000/svg">
<path fill-rule="evenodd" clip-rule="evenodd" d="M7.69007 4.09715C4.89549 5.62444 3 8.59086 3 12C3 12.7443 3.09034 13.4674 3.26066 14.1591L4.09499 13.6775C4.40506 13.4985 4.76894 13.4363 5.12086 13.5022L8.2807 14.0935L8.26877 11.4089C8.26758 11.1408 8.33829 10.8772 8.47352 10.6457L9.33701 11.15L9.36074 11.1639M9.33701 11.15L8.47352 10.6457L10.2064 7.67891L7.69007 4.09715M3.96621 16.0612C5.45042 18.9914 8.49065 21 12 21C12.1512 21 12.3015 20.9963 12.4508 20.9889C13.0024 20.9618 13.4716 21.3869 13.4988 21.9385C13.526 22.4902 13.1008 22.9593 12.5492 22.9865C12.3672 22.9955 12.1841 23 12 23C5.92487 23 1 18.0751 1 12C1 5.92487 5.92487 1 12 1C14.9935 1 17.7077 2.19573 19.691 4.13561C19.6974 4.14172 19.7037 4.14792 19.71 4.15421C21.7406 6.14993 23 8.92789 23 12C23 12.1844 22.9954 12.3675 22.9864 12.5492C22.9598 13.0908 22.5062 13.5125 21.9641 13.4997L21.9876 12.5C21.9641 13.4997 21.9643 13.4997 21.9641 13.4997L21.9595 13.4996L21.9511 13.4994L21.9232 13.4985C21.8997 13.4977 21.8667 13.4964 21.825 13.4944C21.7416 13.4905 21.6231 13.4839 21.4761 13.4729C21.1827 13.4511 20.7726 13.4116 20.2999 13.3409C19.3714 13.202 18.1294 12.9326 17.0531 12.3945C16.6256 12.1808 16.1402 11.7478 15.7446 11.2299C15.3366 10.6959 14.9484 9.97402 14.8234 9.12873C14.6947 8.25829 14.854 7.30431 15.4756 6.38179C15.8823 5.77807 16.4693 5.2134 17.256 4.69337C15.7772 3.62776 13.9619 3 12 3C11.1661 3 10.3587 3.11342 9.5923 3.32567L12.0274 6.79174C12.3645 7.27168 12.3911 7.90411 12.0952 8.41058L10.2694 11.5365L10.2834 14.6896C10.2876 15.6314 9.43309 16.3439 8.50744 16.1707L4.93473 15.5021L3.96621 16.0612ZM18.7926 6.09549C17.9219 6.5933 17.4169 7.0798 17.1342 7.49933C16.8026 7.99147 16.7431 8.43892 16.8019 8.83611C16.8644 9.25844 17.07 9.67037 17.3338 10.0157C17.6101 10.3773 17.8747 10.5693 17.9474 10.6056C18.7481 11.0059 19.7498 11.2364 20.5957 11.3629C20.7306 11.3831 20.8597 11.4003 20.9813 11.4151C20.8511 9.38523 20.0479 7.53844 18.7926 6.09549ZM12.8839 12.8839C13.1622 12.6056 13.5777 12.5164 13.9457 12.656L22.2944 15.8228C22.6799 15.969 22.9361 16.3367 22.9398 16.7489C22.9434 17.1611 22.6937 17.5333 22.311 17.6863L19.007 19.007L17.6863 22.311C17.5333 22.6937 17.1611 22.9434 16.7489 22.9398C16.3367 22.9361 15.969 22.6799 15.8228 22.2944L12.656 13.9457C12.5164 13.5777 12.6056 13.1622 12.8839 12.8839ZM15.3141 15.3141L16.7822 19.1845L17.3091 17.8665C17.4107 17.6122 17.6122 17.4107 17.8665 17.3091L19.1845 16.7822L15.3141 15.3141Z" fill="#D0D5DD"/>
</svg>
