<svg width="24" height="24" viewBox="0 0 24 24" fill="none" xmlns="http://www.w3.org/2000/svg">
<path fill-rule="evenodd" clip-rule="evenodd" d="M17 8C16.4477 8 16 7.55228 16 7C16 6.44772 16.4477 6 17 6H21C21.5523 6 22 6.44772 22 7V11C22 11.5523 21.5523 12 21 12C20.4477 12 20 11.5523 20 11V9.41421L16.2728 13.1414C16.2674 13.1468 16.262 13.1523 16.2564 13.1578C16.1722 13.242 16.0717 13.3427 15.9758 13.4241C15.8648 13.5183 15.6962 13.6439 15.4635 13.7195C15.1623 13.8174 14.8377 13.8174 14.5365 13.7195C14.3038 13.6439 14.1352 13.5183 14.0242 13.4241C13.9283 13.3427 13.8278 13.2421 13.7436 13.1578C13.738 13.1523 13.7326 13.1468 13.7272 13.1414L12 11.4142L7.70711 15.7071C7.31658 16.0976 6.68342 16.0976 6.29289 15.7071C5.90237 15.3166 5.90237 14.6834 6.29289 14.2929L10.7272 9.85858C10.7326 9.8532 10.738 9.84774 10.7436 9.8422C10.8278 9.75795 10.9283 9.65732 11.0242 9.57595C11.1352 9.48166 11.3038 9.35611 11.5365 9.28052C11.8377 9.18263 12.1623 9.18263 12.4635 9.28052C12.6962 9.35611 12.8648 9.48166 12.9758 9.57595C13.0717 9.65733 13.1722 9.75796 13.2564 9.84222C13.262 9.84775 13.2674 9.8532 13.2728 9.85858L15 11.5858L18.5858 8H17Z" fill="#D0D5DD"/>
<path fill-rule="evenodd" clip-rule="evenodd" d="M3 2C3.55229 2 4 2.44772 4 3V17.8C4 18.3766 4.00078 18.7488 4.02393 19.0322C4.04612 19.3038 4.0838 19.4045 4.10899 19.454C4.20487 19.6422 4.35785 19.7951 4.54601 19.891C4.59546 19.9162 4.69617 19.9539 4.96784 19.9761C5.25117 19.9992 5.62345 20 6.2 20H21C21.5523 20 22 20.4477 22 21C22 21.5523 21.5523 22 21 22H6.16144C5.6343 22 5.17954 22 4.80497 21.9694C4.40963 21.9371 4.01641 21.8658 3.63803 21.673C3.07355 21.3854 2.6146 20.9265 2.32698 20.362C2.13419 19.9836 2.06287 19.5904 2.03057 19.195C1.99997 18.8205 1.99998 18.3657 2 17.8385L2 3C2 2.44772 2.44772 2 3 2Z" fill="#D0D5DD"/>
</svg>
