<svg width="24" height="24" viewBox="0 0 24 24" fill="none" xmlns="http://www.w3.org/2000/svg">
<path fill-rule="evenodd" clip-rule="evenodd" d="M4.03883 2.82081C4.04996 2.82582 4.06108 2.83083 4.0722 2.83583L20.8226 10.3735C21.0507 10.4761 21.2796 10.579 21.4581 10.6795C21.6239 10.7728 21.9441 10.9663 22.1265 11.3352C22.3337 11.7542 22.3337 12.2458 22.1265 12.6648C21.9441 13.0338 21.624 13.2272 21.4581 13.3206C21.2796 13.421 21.0508 13.524 20.8226 13.6266L4.04456 21.1767C3.81038 21.2821 3.57711 21.3872 3.38043 21.4553C3.20014 21.5178 2.83645 21.6322 2.43402 21.5199C1.97957 21.3931 1.61128 21.0598 1.43981 20.6203C1.28796 20.2311 1.36562 19.8578 1.4098 19.6722C1.45801 19.4696 1.53927 19.2271 1.62085 18.9835L3.94624 12.0373L1.62519 5.04431C1.62135 5.03274 1.6175 5.02116 1.61366 5.00959C1.53298 4.76664 1.45254 4.52442 1.40495 4.32218C1.36127 4.13651 1.28489 3.76389 1.43715 3.37565C1.60922 2.93692 1.97748 2.60457 2.43149 2.47824C2.83326 2.36645 3.19613 2.48051 3.37636 2.54295C3.57267 2.61095 3.8054 2.71572 4.03883 2.82081ZM3.66685 4.8466L5.70924 11H10.5003C11.0526 11 11.5003 11.4477 11.5003 12C11.5003 12.5523 11.0526 13 10.5003 13H5.73304L3.67413 19.1502L19.5635 12L3.66685 4.8466Z" fill="#D0D5DD"/>
</svg>
