<svg width="20" height="20" viewBox="0 0 20 20" fill="none" xmlns="http://www.w3.org/2000/svg">
<mask id="mask0_1049_7567" style="mask-type:alpha" maskUnits="userSpaceOnUse" x="0" y="0" width="20" height="20">
<rect width="20" height="20" fill="#D9D9D9"/>
</mask>
<g mask="url(#mask0_1049_7567)">
<path d="M4.79167 15H9.08333V13.5417H7.27083L7.91667 11.875H11.9681L12.5952 13.5417H10.8183V15H15.2292V13.5417H14.375L11 5H9.02083L5.64583 13.5417H4.79167V15ZM8.4375 10.5L9.83333 6.91667H10.0417L11.4375 10.5H8.4375ZM3.5 18C3.0875 18 2.73438 17.8531 2.44063 17.5594C2.14688 17.2656 2 16.9125 2 16.5V3.5C2 3.0875 2.14688 2.73438 2.44063 2.44063C2.73438 2.14688 3.0875 2 3.5 2H16.5C16.9125 2 17.2656 2.14688 17.5594 2.44063C17.8531 2.73438 18 3.0875 18 3.5V16.5C18 16.9125 17.8531 17.2656 17.5594 17.5594C17.2656 17.8531 16.9125 18 16.5 18H3.5ZM3.5 16.5H16.5V3.5H3.5V16.5Z" fill="#101828"/>
</g>
</svg>
